<?xml version="1.0" encoding="UTF-8"?>
<svg id="b" data-name="Layer 2" xmlns="http://www.w3.org/2000/svg" width="212.457" height="59.495" xmlns:xlink="http://www.w3.org/1999/xlink" viewBox="0 0 212.457 59.495">
  <defs>
    <linearGradient id="d" x1="28.211" y1="44.884" x2="50.112" y2="22.984" gradientUnits="userSpaceOnUse">
      <stop offset="0" stop-color="#4d4d4d"/>
      <stop offset="1" stop-color="#e6e6e6"/>
    </linearGradient>
    <linearGradient id="e" x1="20.201" y1="41.771" x2="17.796" y2="39.366" xlink:href="#d"/>
    <linearGradient id="f" x1="15.197" y1="30.843" x2="36.584" y2="9.456" gradientUnits="userSpaceOnUse">
      <stop offset="0" stop-color="#e6e6e6"/>
      <stop offset="1" stop-color="#4d4d4d"/>
    </linearGradient>
    <linearGradient id="g" x1="124.581" y1="37.864" x2="124.581" y2="21.631" gradientUnits="userSpaceOnUse">
      <stop offset="0" stop-color="#999"/>
      <stop offset="1" stop-color="#ccc"/>
    </linearGradient>
  </defs>
  <g id="c" data-name="Layer 1">
    <rect width="212.457" height="59.495" fill="none" stroke-width="0"/>
    <g>
      <g>
        <path d="M32.526,27.042s-.002,10.002-7.854,14.303c2.443-4.3,2.443-8.892,2.443-8.892l5.411-5.411ZM43.348,16.22l-5.411,5.411s0,9.369-5.514,17.08c10.924-7.712,10.925-22.491,10.925-22.491ZM31.991,43.274h11.357v-12.236c-2.478,4.524-6.091,8.948-11.357,12.236Z" fill="url(#d)" stroke-width="0"/>
        <path d="M21.704,37.864c-5.338,0-5.41,5.264-5.411,5.407v.004c.085,0,.166-.003.25-.004,5.161-.164,5.161-5.407,5.161-5.407Z" fill="url(#e)" stroke-width="0"/>
        <path d="M32.526,27.042l-5.411,5.411c-3.49,0-6.228.752-8.379,1.93,2.15-3.784,6.191-7.341,13.79-7.341ZM21.807,26.195c3.856-2.722,9.072-4.564,16.13-4.564l5.411-5.411c-11.134,0-17.685,4.582-21.541,9.975ZM27.649,16.22h-11.355v12.235c2.477-4.524,6.09-8.948,11.355-12.235Z" fill="url(#f)" stroke-width="0"/>
      </g>
      <path d="M109.823,21.631h-11.595c-1.281,0-2.319,1.038-2.319,2.319v11.595c0,1.281,1.038,2.319,2.319,2.319h11.595c1.281,0,2.319-1.038,2.319-2.319v-11.595c0-1.281-1.038-2.319-2.319-2.319ZM109.823,35.545h-11.595v-11.595h11.595v11.595ZM56.489,23.95v11.595h11.595v-4.638h-4.638v-2.319h6.957v6.957c0,1.281-1.038,2.319-2.319,2.319h-11.595c-1.281,0-2.319-1.038-2.319-2.319v-11.595c0-1.281,1.038-2.319,2.319-2.319h11.595c1.281,0,2.319,1.038,2.319,2.319h-13.914ZM131.611,21.631h2.626l-8.631,16.233h-2.051l-8.631-16.233h2.626l7.03,13.222,7.03-13.222ZM150.933,35.545h2.319c0,1.281-1.038,2.319-2.319,2.319h-11.595c-1.281,0-2.319-1.038-2.319-2.319v-6.957h13.914v2.319h-11.595v4.638h11.595ZM153.252,23.95h-16.233c0-1.281,1.038-2.319,2.319-2.319h11.595c1.281,0,2.319,1.038,2.319,2.319ZM91.273,23.95v4.638c0,1.281-1.038,2.319-2.319,2.319h-1.38l3.699,6.957h-2.626l-3.699-6.957h-7.588v6.957h-2.319v-9.276h13.914v-4.638h-13.914c0-1.281,1.038-2.319,2.319-2.319h11.595c1.281,0,2.319,1.038,2.319,2.319ZM192.674,21.631h-11.595c-1.281,0-2.319,1.038-2.319,2.319v11.595c0,1.281,1.038,2.319,2.319,2.319h11.595c1.281,0,2.319-1.038,2.319-2.319v-11.595c0-1.281-1.038-2.319-2.319-2.319ZM192.674,35.545h-11.595v-11.595h11.595v11.595ZM174.122,23.95v4.638c0,1.281-1.038,2.319-2.319,2.319h-1.38l3.699,6.957h-2.626l-3.699-6.957h-7.588v6.957h-2.319v-9.276h13.914v-4.638h-13.914c0-1.281,1.038-2.319,2.319-2.319h11.595c1.281,0,2.319,1.038,2.319,2.319Z" fill="url(#g)" stroke-width="0"/>
    </g>
  </g>
</svg>
